<svg width="770" height="914" viewBox="0 0 770 914" fill="none" xmlns="http://www.w3.org/2000/svg">
<path fill-rule="evenodd" clip-rule="evenodd" d="M433.759 914C438.249 902.116 444.314 890.682 452.346 880.164C496.521 822.202 553.504 671.26 451.195 617.757C451.195 617.757 394.725 703.414 318.842 712.335C318.842 712.335 309.971 803.401 218.245 753.337C193.768 740.013 184.686 683.839 209.397 648.111L228.861 619.576C228.861 619.576 280.016 458.999 325.887 412.582C325.887 412.582 341.754 332.324 325.887 294.909C325.887 294.909 284.043 154.385 292.866 170.464C292.866 170.464 349.54 267.736 350.573 269.948C350.573 269.948 437.075 323.439 442.347 353.789C442.347 353.789 617.05 302.079 759.962 441.138C759.962 441.138 705.255 426.886 685.864 434.061C685.864 434.061 725.239 456.596 770 492.861V0H462C324.209 0 212.989 43.4228 128.333 130.268C42.7782 217.113 0 326.355 0 457.994C0 590.549 42.7782 699.79 128.333 785.722C207.127 865.702 308.934 908.461 433.759 914Z" fill="#124FE6" fill-opacity="0.03"/>
</svg>
