<svg width="24" height="24" viewBox="0 0 24 24" fill="none" xmlns="http://www.w3.org/2000/svg">
<g clip-path="url(#clip0)">
<path d="M12.7 7C7.34971 7 3 12 3 12C3 12 7.34971 17 12.7 17C18.0504 17 22.4001 12 22.4001 12C22.4001 12 18.0504 7 12.7 7ZM12.7 15.2341C10.8621 15.2341 9.3714 13.7857 9.3714 12C9.3714 10.2143 10.8621 8.76587 12.7 8.76587C14.538 8.76587 16.0287 10.2143 16.0287 12C16.0287 13.7857 14.538 15.2341 12.7 15.2341Z" fill="#5480ED"/>
<path d="M12.6997 13.6865C13.6583 13.6865 14.4355 12.9314 14.4355 12C14.4355 11.0686 13.6583 10.3135 12.6997 10.3135C11.741 10.3135 10.9639 11.0686 10.9639 12C10.9639 12.9314 11.741 13.6865 12.6997 13.6865Z" fill="#5480ED"/>
</g>
<defs>
<clipPath id="clip0">
<rect width="24" height="24" fill="white"/>
</clipPath>
</defs>
</svg>
