<svg width="120" height="52" viewBox="0 0 120 52" fill="none" xmlns="http://www.w3.org/2000/svg">
<path fill-rule="evenodd" clip-rule="evenodd" d="M18.8753 52C18.6232 51.3243 18.283 50.6743 17.8323 50.0763C15.3524 46.7789 12.1536 38.1914 17.8969 35.1471C17.8969 35.1471 21.067 40.0205 25.3268 40.5281C25.3268 40.5281 25.8249 45.7093 30.9741 42.8607C32.3481 42.1028 32.8581 38.9067 31.4708 36.8742L30.3782 35.2508C30.3782 35.2508 27.5065 26.1151 24.9315 23.4744C24.9315 23.4744 24.0407 18.9082 24.9315 16.7796C24.9315 16.7796 27.2804 8.78475 26.7851 9.69953C26.7851 9.69953 23.6035 15.2336 23.5456 15.3594C23.5456 15.3594 18.6896 18.4027 18.3936 20.1295C18.3936 20.1295 8.58626 17.1876 0.563568 25.0989C0.563568 25.0989 3.63465 24.2882 4.72323 24.6963C4.72323 24.6963 2.51277 25.9784 0 28.0416V0H17.2903C25.0255 0 31.2692 2.47044 36.0216 7.4113C40.8245 12.3522 43.2258 18.5673 43.2258 26.0566C43.2258 33.5979 40.8245 39.8132 36.0216 44.7018C31.5982 49.2524 25.8827 51.6851 18.8753 52Z" fill="white"/>
<path d="M63.8041 33.2221H56.1289V13.5601H63.8041C66.8586 13.5601 69.3392 14.464 71.246 16.2721C73.1721 18.0801 74.135 20.458 74.135 23.4058C74.135 26.3537 73.1818 28.7316 71.275 30.5397C69.3686 32.328 66.8783 33.2221 63.8041 33.2221ZM63.8041 29.5374C65.6718 29.5374 67.1505 28.9478 68.2402 27.7687C69.3489 26.5895 69.9034 25.1353 69.9034 23.4058C69.9034 21.5978 69.3686 20.1239 68.2986 18.9841C67.2283 17.8246 65.7302 17.2448 63.8041 17.2448H60.2731V29.5374H63.8041Z" fill="white"/>
<path d="M78.8271 17.4512C78.2242 17.4512 77.6987 17.2351 77.2513 16.8027C76.8232 16.3507 76.6094 15.8201 76.6094 15.2109C76.6094 14.6017 76.8232 14.0809 77.2513 13.6485C77.6987 13.2162 78.2242 13 78.8271 13C79.4497 13 79.9752 13.2162 80.4032 13.6485C80.8313 14.0809 81.0452 14.6017 81.0452 15.2109C81.0452 15.8201 80.8313 16.3507 80.4032 16.8027C79.9752 17.2351 79.4497 17.4512 78.8271 17.4512ZM80.6949 33.2222H76.9887V18.9841H80.6949V33.2222Z" fill="white"/>
<path d="M90.1482 39C87.7163 39 85.6927 38.2924 84.0779 36.8774L85.7415 34.1656C86.7921 35.3447 88.2611 35.9342 90.1482 35.9342C91.1989 35.9342 92.1034 35.6492 92.8624 35.0795C93.6405 34.5289 94.0295 33.6154 94.0295 32.3378V30.8934C92.8624 32.387 91.4127 33.1337 89.6815 33.1337C87.8524 33.1337 86.3544 32.5049 85.1869 31.2471C84.0392 29.9698 83.4653 28.1814 83.4653 25.8821C83.4653 23.6024 84.0392 21.8239 85.1869 20.5465C86.3544 19.2691 87.8524 18.6304 89.6815 18.6304C91.4324 18.6304 92.8818 19.3575 94.0295 20.8118V18.9841H97.765V32.2494C97.765 33.5465 97.5318 34.6567 97.0647 35.5803C96.6173 36.504 96.0044 37.2017 95.2263 37.6733C94.4479 38.1452 93.6405 38.4793 92.804 38.6756C91.9869 38.8918 91.1015 39 90.1482 39ZM90.8486 29.8027C91.4518 29.8027 92.055 29.6455 92.6579 29.331C93.2611 29.0166 93.7182 28.6334 94.0295 28.1814V23.5828C93.7182 23.1111 93.2611 22.7279 92.6579 22.4331C92.0744 22.1186 91.4711 21.9614 90.8486 21.9614C89.7786 21.9614 88.9127 22.3152 88.2515 23.0226C87.6092 23.7301 87.2882 24.6833 87.2882 25.8821C87.2882 27.0809 87.6092 28.034 88.2515 28.7415C88.9127 29.4489 89.7786 29.8027 90.8486 29.8027Z" fill="white"/>
<path d="M103.28 17.4512C102.677 17.4512 102.151 17.2351 101.704 16.8027C101.276 16.3507 101.062 15.8201 101.062 15.2109C101.062 14.6017 101.276 14.0809 101.704 13.6485C102.151 13.2162 102.677 13 103.28 13C103.903 13 104.428 13.2162 104.856 13.6485C105.284 14.0809 105.498 14.6017 105.498 15.2109C105.498 15.8201 105.284 16.3507 104.856 16.8027C104.428 17.2351 103.903 17.4512 103.28 17.4512ZM105.148 33.2222H101.441V18.9841H105.148V33.2222Z" fill="white"/>
<path d="M113.901 33.5761C112.675 33.5761 111.498 33.3794 110.369 32.9865C109.26 32.5933 108.337 32.0529 107.597 31.365L109.202 28.7415C109.747 29.2524 110.486 29.7044 111.42 30.0975C112.354 30.4905 113.239 30.6871 114.076 30.6871C114.854 30.6871 115.438 30.5495 115.827 30.2743C116.235 29.9992 116.44 29.6258 116.44 29.1542C116.44 28.8004 116.226 28.5155 115.797 28.2993C115.389 28.0635 114.874 27.8964 114.251 27.7982C113.648 27.6999 112.977 27.5525 112.237 27.356C111.517 27.1594 110.846 26.9236 110.224 26.6485C109.62 26.3734 109.105 25.941 108.677 25.3514C108.268 24.7422 108.064 23.9954 108.064 23.1111C108.064 21.8533 108.579 20.7921 109.611 19.9274C110.642 19.0627 112.052 18.6304 113.842 18.6304C116.021 18.6304 117.918 19.2789 119.533 20.576L118.045 23.1406C117.597 22.6689 116.994 22.2759 116.235 21.9614C115.496 21.647 114.708 21.4898 113.872 21.4898C113.21 21.4898 112.675 21.6273 112.267 21.9025C111.858 22.158 111.654 22.4921 111.654 22.9047C111.654 23.2192 111.858 23.4845 112.267 23.7007C112.675 23.8972 113.191 24.0446 113.813 24.1428C114.436 24.2411 115.107 24.3983 115.827 24.6145C116.547 24.811 117.218 25.0567 117.84 25.3514C118.463 25.6266 118.979 26.0786 119.387 26.7075C119.796 27.3363 120 28.1028 120 29.0068C120 30.3431 119.455 31.4437 118.366 32.3084C117.296 33.1536 115.807 33.5761 113.901 33.5761Z" fill="white"/>
</svg>
