<svg width="21" height="20" viewBox="0 0 21 20" fill="none" xmlns="http://www.w3.org/2000/svg">
<path d="M19.0008 0.000139831H2.04239C1.85177 -0.00250479 1.66248 0.0323873 1.48536 0.102824C1.30823 0.17326 1.14673 0.27786 1.01007 0.410652C0.87342 0.543443 0.764292 0.701824 0.688921 0.87675C0.613549 1.05167 0.573412 1.23972 0.570801 1.43014V18.5701C0.573412 18.7606 0.613549 18.9486 0.688921 19.1235C0.764292 19.2985 0.87342 19.4568 1.01007 19.5896C1.14673 19.7224 1.30823 19.827 1.48536 19.8975C1.66248 19.9679 1.85177 20.0028 2.04239 20.0001H19.0008C19.1914 20.0028 19.3807 19.9679 19.5578 19.8975C19.7349 19.827 19.8964 19.7224 20.0331 19.5896C20.1697 19.4568 20.2789 19.2985 20.3542 19.1235C20.4296 18.9486 20.4697 18.7606 20.4724 18.5701V1.43014C20.4697 1.23972 20.4296 1.05167 20.3542 0.87675C20.2789 0.701824 20.1697 0.543443 20.0331 0.410652C19.8964 0.27786 19.7349 0.17326 19.5578 0.102824C19.3807 0.0323873 19.1914 -0.00250479 19.0008 0.000139831ZM6.60734 16.7401H3.60409V7.74014H6.60734V16.7401ZM5.10571 6.48014C4.69152 6.48014 4.2943 6.31578 4.00143 6.02323C3.70855 5.73067 3.54402 5.33388 3.54402 4.92014C3.54402 4.5064 3.70855 4.10961 4.00143 3.81705C4.2943 3.5245 4.69152 3.36014 5.10571 3.36014C5.32564 3.33522 5.54837 3.35699 5.75929 3.42402C5.97022 3.49105 6.1646 3.60183 6.32969 3.7491C6.49479 3.89637 6.62688 4.07682 6.71733 4.27862C6.80777 4.48043 6.85452 4.69904 6.85452 4.92014C6.85452 5.14124 6.80777 5.35985 6.71733 5.56166C6.62688 5.76346 6.49479 5.94391 6.32969 6.09118C6.1646 6.23845 5.97022 6.34923 5.75929 6.41626C5.54837 6.48329 5.32564 6.50506 5.10571 6.48014ZM17.4391 16.7401H14.4358V11.9101C14.4358 10.7001 14.0053 9.91014 12.9142 9.91014C12.5765 9.91261 12.2476 10.0184 11.972 10.2133C11.6963 10.4082 11.4871 10.6828 11.3725 11.0001C11.2942 11.2352 11.2602 11.4827 11.2724 11.7301V16.7301H8.26914C8.26914 16.7301 8.26914 8.55014 8.26914 7.73014H11.2724V9.00014C11.5452 8.52725 11.942 8.13766 12.4201 7.87334C12.8981 7.60903 13.4393 7.47999 13.9853 7.50014C15.9875 7.50014 17.4391 8.79014 17.4391 11.5601V16.7401Z" fill="white"/>
</svg>
