<svg width="73" height="86" viewBox="0 0 73 86" fill="none" xmlns="http://www.w3.org/2000/svg">
<path fill-rule="evenodd" clip-rule="evenodd" d="M31.8774 86C31.4517 84.8818 30.8767 83.8059 30.1153 82.8163C25.9272 77.3626 20.525 63.1601 30.2244 58.1259C30.2244 58.1259 35.578 66.1856 42.7722 67.025C42.7722 67.025 43.6131 75.5936 52.3093 70.8829C54.6298 69.6293 55.4908 64.3437 53.1481 60.982L51.3028 58.297C51.3028 58.297 46.4531 43.1881 42.1043 38.8206C42.1043 38.8206 40.5999 31.269 42.1043 27.7485C42.1043 27.7485 46.0713 14.5263 45.2348 16.0392C45.2348 16.0392 39.8618 25.1918 39.7639 25.3999C39.7639 25.3999 31.563 30.433 31.0632 33.2887C31.0632 33.2887 14.5004 28.4232 0.951666 41.5075C0.951666 41.5075 6.13812 40.1665 7.9765 40.8416C7.9765 40.8416 4.24355 42.9619 0 46.3742V0H29.2C42.2633 0 52.8076 4.08573 60.8334 12.2572C68.9444 20.4286 73 30.7074 73 43.0935C73 55.5659 68.9444 65.8446 60.8334 73.9301C53.3633 81.4556 43.7115 85.4788 31.8774 86Z" fill="white"/>
</svg>
