<svg width="20" height="20" viewBox="0 0 20 20" fill="none" xmlns="http://www.w3.org/2000/svg">
<path d="M14.2901 6.71L16.5901 9L7.0001 9C6.73489 9 6.48053 9.10536 6.293 9.29289C6.10546 9.48043 6.0001 9.73478 6.0001 10C6.0001 10.2652 6.10546 10.5196 6.293 10.7071C6.48053 10.8946 6.73489 11 7.0001 11L16.5901 11L14.2901 13.29C14.1964 13.383 14.122 13.4936 14.0712 13.6154C14.0204 13.7373 13.9943 13.868 13.9943 14C13.9943 14.132 14.0204 14.2627 14.0712 14.3846C14.122 14.5064 14.1964 14.617 14.2901 14.71C14.3831 14.8037 14.4937 14.8781 14.6155 14.9289C14.7374 14.9797 14.8681 15.0058 15.0001 15.0058C15.1321 15.0058 15.2628 14.9797 15.3847 14.9289C15.5065 14.8781 15.6171 14.8037 15.7101 14.71L19.7101 10.71C19.8011 10.6149 19.8725 10.5028 19.9201 10.38C20.0201 10.1365 20.0201 9.86346 19.9201 9.62C19.8725 9.49725 19.8011 9.38511 19.7101 9.29L15.7101 5.29C15.6169 5.19676 15.5062 5.1228 15.3844 5.07234C15.2625 5.02188 15.132 4.99591 15.0001 4.99591C14.8682 4.99591 14.7377 5.02188 14.6159 5.07234C14.494 5.1228 14.3833 5.19676 14.2901 5.29C14.1969 5.38324 14.1229 5.49393 14.0724 5.61575C14.022 5.73757 13.996 5.86814 13.996 6C13.996 6.13186 14.022 6.26243 14.0724 6.38425C14.1229 6.50607 14.1969 6.61676 14.2901 6.71ZM8.0001 19C8.0001 18.7348 7.89475 18.4804 7.70721 18.2929C7.51967 18.1054 7.26532 18 7.0001 18L3.0001 18C2.73489 18 2.48053 17.8946 2.29299 17.7071C2.10546 17.5196 2.0001 17.2652 2.0001 17L2.0001 3C2.0001 2.73478 2.10546 2.48043 2.293 2.29289C2.48053 2.10536 2.73489 2 3.0001 2L7.0001 2C7.26532 2 7.51967 1.89464 7.70721 1.70711C7.89475 1.51957 8.0001 1.26522 8.0001 1C8.0001 0.734783 7.89475 0.480429 7.70721 0.292893C7.51967 0.105356 7.26532 -5.56437e-07 7.0001 -5.6803e-07L3.0001 -7.42876e-07C2.20445 -7.77655e-07 1.44139 0.31607 0.878782 0.878679C0.316173 1.44129 0.0001029 2.20435 0.000102866 3L0.000102254 17C0.000102219 17.7957 0.316173 18.5587 0.878781 19.1213C1.44139 19.6839 2.20445 20 3.0001 20L7.0001 20C7.26532 20 7.51967 19.8946 7.70721 19.7071C7.89475 19.5196 8.0001 19.2652 8.0001 19Z" fill="#C4C4C4"/>
</svg>
