<svg width="43" height="51" viewBox="0 0 43 51" fill="none" xmlns="http://www.w3.org/2000/svg">
<path fill-rule="evenodd" clip-rule="evenodd" d="M18.7771 51C18.5264 50.3369 18.1877 49.6989 17.7391 49.112C15.2722 45.8778 12.0901 37.4554 17.8034 34.47C17.8034 34.47 20.9569 39.2496 25.1946 39.7474C25.1946 39.7474 25.6899 44.8287 30.8123 42.0352C32.1792 41.2918 32.6864 38.1573 31.3064 36.1637L30.2194 34.5715C30.2194 34.5715 27.3628 25.6116 24.8011 23.0215C24.8011 23.0215 23.915 18.5432 24.8011 16.4555C24.8011 16.4555 27.1379 8.61446 26.6452 9.51164C26.6452 9.51164 23.4802 14.9393 23.4226 15.0627C23.4226 15.0627 18.5919 18.0475 18.2975 19.741C18.2975 19.741 8.54135 16.8556 0.56057 24.6149C0.56057 24.6149 3.6156 23.8197 4.69849 24.22C4.69849 24.22 2.49963 25.4774 0 27.501V0H17.2C24.8948 0 31.1058 2.42293 35.8334 7.26879C40.6111 12.1146 43 18.2102 43 25.5555C43 32.9519 40.6111 39.0474 35.8334 43.8423C31.4332 48.305 25.7478 50.6909 18.7771 51Z" fill="#124FE6"/>
</svg>
