<svg width="21" height="16" viewBox="0 0 21 16" fill="none" xmlns="http://www.w3.org/2000/svg">
<path d="M17.4281 0H3.41291C2.6164 0 1.85252 0.316071 1.2893 0.87868C0.726081 1.44129 0.409668 2.20435 0.409668 3V13C0.409668 13.7956 0.726081 14.5587 1.2893 15.1213C1.85252 15.6839 2.6164 16 3.41291 16H17.4281C18.2246 16 18.9885 15.6839 19.5517 15.1213C20.1149 14.5587 20.4313 13.7956 20.4313 13V3C20.4313 2.20435 20.1149 1.44129 19.5517 0.87868C18.9885 0.316071 18.2246 0 17.4281 0ZM3.41291 2H17.4281C17.6936 2 17.9482 2.10536 18.1359 2.29289C18.3237 2.48043 18.4291 2.73478 18.4291 3L10.4205 7.88L2.41183 3C2.41183 2.73478 2.5173 2.48043 2.70504 2.29289C2.89278 2.10536 3.14741 2 3.41291 2ZM18.4291 13C18.4291 13.2652 18.3237 13.5196 18.1359 13.7071C17.9482 13.8946 17.6936 14 17.4281 14H3.41291C3.14741 14 2.89278 13.8946 2.70504 13.7071C2.5173 13.5196 2.41183 13.2652 2.41183 13V5.28L9.89992 9.85C10.0521 9.93777 10.2247 9.98397 10.4005 9.98397C10.5762 9.98397 10.7488 9.93777 10.901 9.85L18.4291 5.28V13Z" fill="white"/>
</svg>
