<svg width="18" height="18" viewBox="0 0 18 18" fill="none" xmlns="http://www.w3.org/2000/svg">
<path d="M8.99984 0.666504C6.86349 0.672597 4.81108 1.49893 3.2665 2.97484V1.49984C3.2665 1.27882 3.17871 1.06686 3.02243 0.910582C2.86615 0.754301 2.65418 0.666504 2.43317 0.666504C2.21216 0.666504 2.0002 0.754301 1.84391 0.910582C1.68763 1.06686 1.59984 1.27882 1.59984 1.49984V5.24984C1.59984 5.47085 1.68763 5.68281 1.84391 5.83909C2.0002 5.99537 2.21216 6.08317 2.43317 6.08317H6.18317C6.40418 6.08317 6.61615 5.99537 6.77243 5.83909C6.92871 5.68281 7.0165 5.47085 7.0165 5.24984C7.0165 5.02882 6.92871 4.81686 6.77243 4.66058C6.61615 4.5043 6.40418 4.4165 6.18317 4.4165H4.18317C5.25465 3.2968 6.68276 2.58538 8.22195 2.40456C9.76114 2.22374 11.3152 2.58482 12.6171 3.42571C13.9189 4.2666 14.887 5.53476 15.3551 7.01216C15.8232 8.48956 15.7619 10.0839 15.1819 11.521C14.6018 12.9581 13.5391 14.1483 12.1766 14.8868C10.8141 15.6253 9.23691 15.866 7.71613 15.5676C6.19536 15.2692 4.82606 14.4503 3.84366 13.2517C2.86127 12.053 2.32716 10.5496 2.33317 8.99984C2.33317 8.77882 2.24537 8.56686 2.08909 8.41058C1.93281 8.2543 1.72085 8.1665 1.49984 8.1665C1.27882 8.1665 1.06686 8.2543 0.910582 8.41058C0.754301 8.56686 0.666504 8.77882 0.666504 8.99984C0.666504 10.648 1.15525 12.2592 2.07092 13.6296C2.9866 15 4.28809 16.0681 5.81081 16.6988C7.33353 17.3296 9.00908 17.4946 10.6256 17.173C12.2421 16.8515 13.727 16.0578 14.8924 14.8924C16.0578 13.727 16.8515 12.2421 17.173 10.6256C17.4946 9.00908 17.3296 7.33353 16.6988 5.81081C16.0681 4.28809 15 2.9866 13.6296 2.07092C12.2592 1.15525 10.648 0.666504 8.99984 0.666504ZM8.99984 5.6665C8.77882 5.6665 8.56686 5.7543 8.41058 5.91058C8.2543 6.06686 8.1665 6.27882 8.1665 6.49984V8.99984C8.1665 9.22085 8.2543 9.43281 8.41058 9.58909C8.56686 9.74537 8.77882 9.83317 8.99984 9.83317H10.6665C10.8875 9.83317 11.0995 9.74537 11.2558 9.58909C11.412 9.43281 11.4998 9.22085 11.4998 8.99984C11.4998 8.77882 11.412 8.56686 11.2558 8.41058C11.0995 8.2543 10.8875 8.1665 10.6665 8.1665H9.83317V6.49984C9.83317 6.27882 9.74537 6.06686 9.58909 5.91058C9.43281 5.7543 9.22085 5.6665 8.99984 5.6665Z" fill="#B4B6B9"/>
</svg>
